<svg width="1920" height="1080" viewBox="0 0 1920 1080" fill="none" xmlns="http://www.w3.org/2000/svg">
<g clip-path="url(#clip0_26_191)">
<rect width="1920" height="1080" fill="white"/>
<path d="M1211.78 -61.4482L1466.81 300.281L1868.86 221.346L1211.78 -61.4482Z" fill="#82A9F8"/>
<path d="M1211.78 -61.4489L1257.35 652.479L1466.81 300.281L1211.78 -61.4489Z" fill="#A5FCF6"/>
<path d="M1728.39 671.308L1901.68 917.097L1909.2 278.132L1728.39 671.308Z" fill="#A5FCF6"/>
<path d="M1901.67 917.096L1728.36 671.267L1297.48 709.408L1901.67 917.096Z" fill="#D0B0F9"/>
<path d="M1688.28 614.418L1868.86 221.345L1466.86 300.361L1688.28 614.418Z" fill="#D0B0F9"/>
<path d="M1257.35 652.477L1688.28 614.417L1466.86 300.361L1257.35 652.477Z" fill="#82A9F8"/>
<path d="M431.192 -154.454L362.875 282.834L706.672 505.73L431.192 -154.454Z" fill="#82A9F8"/>
<path d="M431.192 -154.456L-32.576 390.235L362.875 282.832L431.192 -154.456Z" fill="#A5FCF6"/>
<path d="M292.801 731.359L246.38 1028.49L696.166 574.588L292.801 731.359Z" fill="#A5FCF6"/>
<path d="M246.38 1028.49L292.808 731.308L-43.3286 459.055L246.38 1028.49Z" fill="#D0B0F9"/>
<path d="M303.547 662.586L706.673 505.727L362.86 282.93L303.547 662.586Z" fill="#D0B0F9"/>
<path d="M-32.5751 390.233L303.546 662.584L362.86 282.928L-32.5751 390.233Z" fill="#82A9F8"/>
<path d="M1021.19 434.546L952.875 871.834L1296.67 1094.73L1021.19 434.546Z" fill="#82A9F8"/>
<path d="M1021.19 434.544L557.424 979.235L952.875 871.832L1021.19 434.544Z" fill="#A5FCF6"/>
<path d="M836.38 1617.49L882.808 1320.31L546.671 1048.05L836.38 1617.49Z" fill="#D0B0F9"/>
<path d="M893.547 1251.59L1296.67 1094.73L952.86 871.93L893.547 1251.59Z" fill="#D0B0F9"/>
<path d="M557.425 979.233L893.546 1251.58L952.86 871.928L557.425 979.233Z" fill="#82A9F8"/>
<path d="M928.212 82.6949L977.262 379.401L1262.11 -192.607L928.212 82.6949Z" fill="#A5FCF6"/>
<path d="M977.262 379.4L928.203 82.6448L523.67 -70.5303L977.262 379.4Z" fill="#D0B0F9"/>
<path d="M916.86 14.0204L1250.51 -261.29L854.186 -365.096L916.86 14.0204Z" fill="#D0B0F9"/>
<path d="M512.31 -139.254L916.859 14.019L854.184 -365.097L512.31 -139.254Z" fill="#82A9F8"/>
</g>
<defs>
<clipPath id="clip0_26_191">
<rect width="1920" height="1080" fill="white"/>
</clipPath>
</defs>
</svg>
