<svg width="94" height="92" viewBox="0 0 94 92" fill="none" xmlns="http://www.w3.org/2000/svg">
<rect x="2" y="2" width="89.2537" height="88" fill="#A5FCF6" stroke="black" stroke-width="4"/>
<path d="M73.8918 22.9939C73.6947 22.4053 73.4595 22.2504 73.092 22.1032C72.2884 21.8012 70.9272 22.2581 70.9272 22.2581C70.9272 22.2581 22.7372 39.8229 19.9841 41.7668C19.3913 42.185 19.1927 42.4328 19.0942 42.7193C18.6183 44.0979 20.101 44.7097 20.101 44.7097L32.5218 48.8143C32.5218 48.8143 32.9847 48.884 33.1497 48.7756C35.9754 46.9634 61.5787 30.5758 63.0553 30.0259C63.2883 29.9562 63.4609 30.0337 63.4151 30.1963C62.8238 32.3029 40.5862 52.3381 40.5862 52.3381C40.5862 52.3381 40.5014 52.4465 40.448 52.5705L40.4189 52.555L39.2601 65.047C39.2601 65.047 38.7743 68.8728 42.5487 65.047C45.2116 62.3441 47.7882 60.0827 49.0776 58.9907C53.3485 61.9801 57.9448 65.2871 59.9287 67.0141C60.9248 67.8815 61.7582 68.0209 62.4442 67.9977C64.3272 67.928 64.8527 65.8292 64.8527 65.8292C64.8527 65.8292 73.6344 29.995 73.9277 25.1933C73.9567 24.7209 73.9965 24.4266 73.9995 24.1013C74.0049 23.6521 73.9636 23.203 73.8918 22.9939Z" fill="black"/>
</svg>
