<svg width="94" height="92" viewBox="0 0 94 92" fill="none" xmlns="http://www.w3.org/2000/svg">
<rect x="2" y="2" width="89.2537" height="88" fill="#D0B0F9" stroke="black" stroke-width="4"/>
<path d="M57.4295 67.1032L44.9262 48.9369L43.1456 46.351L28.637 25.2712H34.8779L46.6113 42.3189L48.3917 44.9049L63.6705 67.1032H57.4295ZM66.2506 65.3287L50.5025 42.4499L48.7221 39.8623L37.4569 23.4963L36.5232 22.14H22.6807L26.0566 27.0457L41.0349 48.8088L42.8154 51.3935L54.8503 68.8797L55.784 70.2344H69.6266L66.2506 65.3287Z" fill="black"/>
<path d="M43.146 46.351L44.9266 48.9369L42.8158 51.3935L26.6206 70.2344H22.627L41.0353 48.8088L43.146 46.351Z" fill="black"/>
<path d="M67.9602 22.1394L50.5025 42.4493L48.3918 44.9043L46.6113 42.3183L48.7221 39.8617L60.5477 26.0975L63.9665 22.1394H67.9602Z" fill="black"/>
</svg>
