<svg width="94" height="92" viewBox="0 0 94 92" fill="none" xmlns="http://www.w3.org/2000/svg">
<rect x="2" y="2" width="89.2537" height="88" fill="#82A9F8" stroke="black" stroke-width="4"/>
<path d="M20.5166 45.8444L28.8241 42.2099V32.8639L38.1701 38.0561L46.4777 34.4215L28.8241 24.0371L20.5166 28.1909V45.8444Z" fill="black"/>
<path d="M73.9981 28.1912L66.729 24.5566L57.383 29.7489L63.6136 32.8642L19.999 53.1138V63.4983L26.7489 66.6136L36.6141 62.4598L30.3835 58.8253L73.9981 39.0948V28.1912Z" fill="black"/>
<path d="M74.0001 62.4598V45.8447L66.2118 48.9601V58.306L56.3466 53.633L48.0391 58.306L66.2118 67.1328L74.0001 62.4598Z" fill="black"/>
<path d="M47.5164 67.6521L42.8434 65.5752L34.0166 69.729L47.5164 76.9981L61.0161 69.729L53.2278 65.5752L47.5164 67.6521Z" fill="black"/>
<path d="M47.5164 14.6914L34.0166 21.4413L42.3241 26.6335L47.5164 24.0374L51.6701 26.6335L61.0161 22.4797L47.5164 14.6914Z" fill="black"/>
</svg>
